<?xml version="1.0" encoding="utf-8"?>
<!-- Generator: Adobe Illustrator 26.2.1, SVG Export Plug-In . SVG Version: 6.00 Build 0)  -->
<svg version="1.1" id="Layer_1" xmlns="http://www.w3.org/2000/svg" xmlns:xlink="http://www.w3.org/1999/xlink" x="0px" y="0px"
	 viewBox="0 0 1678.85 1678.4" style="enable-background:new 0 0 1678.85 1678.4;" xml:space="preserve">
<style type="text/css">
	.st0{fill:#FFFFFF;}
</style>
<g>
	<g>
		<polygon class="st0" points="-1272.54,942.77 -1204.24,904.76 -1204.24,626.07 -1081.42,694.92 -1081.42,617.81 -1272.54,506.55 
					"/>
		<polygon class="st0" points="-999.35,667.93 -822.56,565.49 -822.56,583.11 -749.72,470.2 -822.56,467.45 -822.56,483.97 
			-1067.65,626.62 -1067.65,703.73 -999.35,742.28 		"/>
		<polygon class="st0" points="-860.56,664.07 -1067.65,785.24 -1067.65,942.77 -999.35,903.66 -999.35,824.9 -860.56,745.04 
			-860.56,764.31 -793.92,652.51 -860.56,648.65 		"/>
	</g>
	<g>
		<path class="st0" d="M-1520.86,1109.62h102.38v22.63h-78.86v15.21h42.58v21.44h-42.58v42.06h-23.52V1109.62z"/>
		<path class="st0" d="M-1262.62,1109.62v101.34h-23.59v-69.59l-43.1,57.42h-4.75l-43.62-57.42v69.59h-23.52v-101.34h26.86
			l44.73,58.83l44.22-58.83H-1262.62z"/>
		<path class="st0" d="M-1192.81,1109.62h23.52v101.34h-23.52V1109.62z"/>
		<path class="st0" d="M-1141.92,1109.62h18.4l81.9,68.99v-68.99h23.52v101.34h-18.4l-81.9-68.85v68.85h-23.52V1109.62z"/>
		<path class="st0" d="M-1007.94,1109.62h27.38l40.73,72.78l38.87-72.78h23.52l-55.71,101.34h-16.32L-1007.94,1109.62z"/>
		<path class="st0" d="M-867.28,1109.62h103.64v22.63h-80.12v15.21h46.81v21.44h-46.81v19.59h81.16v22.48h-104.68V1109.62z"/>
		<path class="st0" d="M-720.91,1176.31v12.17h66.1v-17.81h-64.84c-4.15,0-7.65-0.37-10.5-1.11c-2.84-0.74-5.12-2-6.83-3.78
			c-1.71-1.78-2.97-4.09-3.78-6.94c-0.82-2.84-1.22-6.34-1.22-10.5v-16.4c0-8.21,1.67-13.98,5.01-17.32
			c3.34-3.34,9.11-5.01,17.32-5.01h64.69c4.15,0,7.65,0.41,10.5,1.22c2.84,0.82,5.16,2.08,6.94,3.78c1.78,1.71,3.04,4.01,3.78,6.9
			c0.74,2.89,1.11,6.37,1.11,10.42v6.97l-23.52,4.9v-11.57h-62.32v16.84h64.91c4.15,0,7.64,0.41,10.46,1.22
			c2.82,0.82,5.12,2.09,6.9,3.82c1.78,1.73,3.05,4.04,3.82,6.94c0.77,2.89,1.15,6.37,1.15,10.42v17.14c0,4.15-0.38,7.65-1.15,10.5
			c-0.77,2.84-2.04,5.14-3.82,6.9c-1.78,1.76-4.08,3.02-6.9,3.78c-2.82,0.77-6.31,1.15-10.46,1.15h-68.7
			c-4.15,0-7.63-0.38-10.42-1.15c-2.79-0.77-5.07-2.03-6.83-3.78c-1.76-1.75-3.02-4.05-3.78-6.9c-0.77-2.84-1.15-6.34-1.15-10.5
			v-7.42L-720.91,1176.31z"/>
		<path class="st0" d="M-547.91,1210.96h-23.67v-78.71h-46.51v-22.63h116.7v22.63h-46.52V1210.96z"/>
	</g>
</g>
<g>
	<g>
		<polygon class="st0" points="209.89,923.43 234.09,909.96 234.09,811.19 277.62,835.59 277.62,808.26 209.89,768.83 		"/>
		<polygon class="st0" points="306.71,826.03 369.37,789.72 369.37,795.96 395.19,755.95 369.37,754.97 369.37,760.83 282.5,811.39 
			282.5,838.71 306.71,852.38 		"/>
		<polygon class="st0" points="355.9,824.66 282.5,867.6 282.5,923.43 306.71,909.57 306.71,881.66 355.9,853.35 355.9,860.19 
			379.52,820.56 355.9,819.19 		"/>
	</g>
	<g>
		<path class="st0" d="M441.43,788.13h103.19v22.81h-79.48v15.33h42.92v21.61h-42.92v42.4h-23.7V788.13z"/>
		<path class="st0" d="M701.71,788.13v102.14h-23.78v-70.14l-43.44,57.87h-4.79l-43.97-57.87v70.14h-23.7V788.13h27.07l45.09,59.3
			l44.57-59.3H701.71z"/>
		<path class="st0" d="M772.07,788.13h23.7v102.14h-23.7V788.13z"/>
		<path class="st0" d="M823.37,788.13h18.54l82.55,69.54v-69.54h23.7v102.14h-18.54l-82.55-69.39v69.39h-23.7V788.13z"/>
		<path class="st0" d="M958.41,788.13H986l41.05,73.35l39.18-73.35h23.7l-56.15,102.14h-16.45L958.41,788.13z"/>
		<path class="st0" d="M1100.18,788.13h104.46v22.81h-80.76v15.33h47.18v21.61h-47.18v19.74h81.8v22.66h-105.51V788.13z"/>
		<path class="st0" d="M1247.71,855.35v12.26h66.62v-17.95h-65.35c-4.19,0-7.71-0.37-10.58-1.12c-2.87-0.75-5.16-2.02-6.88-3.81
			c-1.72-1.79-2.99-4.12-3.81-6.99c-0.82-2.87-1.23-6.39-1.23-10.58v-16.52c0-8.27,1.68-14.09,5.05-17.46
			c3.36-3.36,9.18-5.05,17.46-5.05h65.2c4.19,0,7.71,0.41,10.58,1.23c2.87,0.82,5.2,2.09,6.99,3.81c1.79,1.72,3.07,4.04,3.81,6.95
			c0.75,2.92,1.12,6.42,1.12,10.51v7.03l-23.7,4.94v-11.66h-62.81v16.97h65.43c4.19,0,7.7,0.41,10.54,1.23
			c2.84,0.82,5.16,2.11,6.95,3.85c1.79,1.75,3.08,4.07,3.85,6.99c0.77,2.92,1.16,6.42,1.16,10.51v17.27c0,4.19-0.39,7.71-1.16,10.58
			c-0.77,2.87-2.06,5.18-3.85,6.95c-1.79,1.77-4.11,3.04-6.95,3.81c-2.84,0.77-6.36,1.16-10.54,1.16h-69.24
			c-4.19,0-7.69-0.39-10.51-1.16c-2.82-0.77-5.11-2.04-6.88-3.81c-1.77-1.77-3.04-4.09-3.81-6.95c-0.77-2.87-1.16-6.39-1.16-10.58
			v-7.48L1247.71,855.35z"/>
		<path class="st0" d="M1422.08,890.27h-23.85v-79.33h-46.88v-22.81h117.62v22.81h-46.88V890.27z"/>
	</g>
</g>
<rect x="-1850.55" y="-1893.45" width="1678.85" height="1678.85"/>
<rect x="0" y="-1893.45" width="1678.85" height="1678.85"/>
<g>
	<g>
		<polygon class="st0" points="-1272.54,-950.68 -1204.24,-988.68 -1204.24,-1267.38 -1081.42,-1198.53 -1081.42,-1275.64 
			-1272.54,-1386.89 		"/>
		<polygon class="st0" points="-999.35,-1225.52 -822.56,-1327.96 -822.56,-1310.34 -749.72,-1423.25 -822.56,-1426 
			-822.56,-1409.48 -1067.65,-1266.83 -1067.65,-1189.72 -999.35,-1151.16 		"/>
		<polygon class="st0" points="-860.56,-1229.37 -1067.65,-1108.2 -1067.65,-950.68 -999.35,-989.79 -999.35,-1068.55 
			-860.56,-1148.41 -860.56,-1129.13 -793.92,-1240.94 -860.56,-1244.79 		"/>
	</g>
	<g>
		<path class="st0" d="M-1520.86-783.83h102.38v22.63h-78.86v15.21h42.58v21.44h-42.58v42.06h-23.52V-783.83z"/>
		<path class="st0" d="M-1262.62-783.83v101.34h-23.59v-69.59l-43.1,57.42h-4.75l-43.62-57.42v69.59h-23.52v-101.34h26.86
			l44.73,58.83l44.22-58.83H-1262.62z"/>
		<path class="st0" d="M-1192.81-783.83h23.52v101.34h-23.52V-783.83z"/>
		<path class="st0" d="M-1141.92-783.83h18.4l81.9,68.99v-68.99h23.52v101.34h-18.4l-81.9-68.85v68.85h-23.52V-783.83z"/>
		<path class="st0" d="M-1007.94-783.83h27.38l40.73,72.78l38.87-72.78h23.52l-55.71,101.34h-16.32L-1007.94-783.83z"/>
		<path class="st0" d="M-867.28-783.83h103.64v22.63h-80.12v15.21h46.81v21.44h-46.81v19.59h81.16v22.48h-104.68V-783.83z"/>
		<path class="st0" d="M-720.91-717.14v12.17h66.1v-17.8h-64.84c-4.15,0-7.65-0.37-10.5-1.11c-2.84-0.74-5.12-2-6.83-3.78
			c-1.71-1.78-2.97-4.09-3.78-6.94c-0.82-2.84-1.22-6.34-1.22-10.5v-16.4c0-8.21,1.67-13.98,5.01-17.32
			c3.34-3.34,9.11-5.01,17.32-5.01h64.69c4.15,0,7.65,0.41,10.5,1.22c2.84,0.82,5.16,2.08,6.94,3.78c1.78,1.71,3.04,4.01,3.78,6.9
			c0.74,2.89,1.11,6.37,1.11,10.42v6.97l-23.52,4.9v-11.57h-62.32v16.84h64.91c4.15,0,7.64,0.41,10.46,1.22
			c2.82,0.82,5.12,2.09,6.9,3.82c1.78,1.73,3.05,4.04,3.82,6.94c0.77,2.89,1.15,6.37,1.15,10.42v17.14c0,4.15-0.38,7.65-1.15,10.5
			c-0.77,2.84-2.04,5.14-3.82,6.9c-1.78,1.76-4.08,3.02-6.9,3.78c-2.82,0.77-6.31,1.15-10.46,1.15h-68.7
			c-4.15,0-7.63-0.38-10.42-1.15c-2.79-0.77-5.07-2.03-6.83-3.78c-1.76-1.75-3.02-4.05-3.78-6.9c-0.77-2.84-1.15-6.34-1.15-10.5
			v-7.42L-720.91-717.14z"/>
		<path class="st0" d="M-547.91-682.49h-23.67v-78.71h-46.51v-22.63h116.7v22.63h-46.52V-682.49z"/>
	</g>
</g>
<g>
	<g>
		<polygon class="st0" points="209.89,-970.01 234.09,-983.48 234.09,-1082.26 277.62,-1057.86 277.62,-1085.18 209.89,-1124.62 		
			"/>
		<polygon class="st0" points="306.71,-1067.42 369.37,-1103.73 369.37,-1097.48 395.19,-1137.5 369.37,-1138.48 369.37,-1132.62 
			282.5,-1082.06 282.5,-1054.73 306.71,-1041.07 		"/>
		<polygon class="st0" points="355.9,-1068.79 282.5,-1025.84 282.5,-970.01 306.71,-983.87 306.71,-1011.79 355.9,-1040.09 
			355.9,-1033.26 379.52,-1072.89 355.9,-1074.25 		"/>
	</g>
	<g>
		<path class="st0" d="M441.43-1105.32h103.19v22.81h-79.48v15.33h42.92v21.61h-42.92v42.4h-23.7V-1105.32z"/>
		<path class="st0" d="M701.71-1105.32v102.14h-23.78v-70.14l-43.44,57.87h-4.79l-43.97-57.87v70.14h-23.7v-102.14h27.07l45.09,59.3
			l44.57-59.3H701.71z"/>
		<path class="st0" d="M772.07-1105.32h23.7v102.14h-23.7V-1105.32z"/>
		<path class="st0" d="M823.37-1105.32h18.54l82.55,69.54v-69.54h23.7v102.14h-18.54l-82.55-69.39v69.39h-23.7V-1105.32z"/>
		<path class="st0" d="M958.41-1105.32H986l41.05,73.35l39.18-73.35h23.7l-56.15,102.14h-16.45L958.41-1105.32z"/>
		<path class="st0" d="M1100.18-1105.32h104.46v22.81h-80.76v15.33h47.18v21.61h-47.18v19.74h81.8v22.66h-105.51V-1105.32z"/>
		<path class="st0" d="M1247.71-1038.09v12.26h66.62v-17.95h-65.35c-4.19,0-7.71-0.37-10.58-1.12c-2.87-0.75-5.16-2.02-6.88-3.81
			c-1.72-1.79-2.99-4.12-3.81-6.99c-0.82-2.87-1.23-6.39-1.23-10.58v-16.52c0-8.27,1.68-14.09,5.05-17.46
			c3.36-3.36,9.18-5.05,17.46-5.05h65.2c4.19,0,7.71,0.41,10.58,1.23c2.87,0.82,5.2,2.09,6.99,3.81c1.79,1.72,3.07,4.04,3.81,6.95
			s1.12,6.42,1.12,10.51v7.03l-23.7,4.94v-11.66h-62.81v16.97h65.43c4.19,0,7.7,0.41,10.54,1.23c2.84,0.82,5.16,2.11,6.95,3.85
			c1.79,1.75,3.08,4.07,3.85,6.99c0.77,2.92,1.16,6.42,1.16,10.51v17.27c0,4.19-0.39,7.71-1.16,10.58
			c-0.77,2.87-2.06,5.18-3.85,6.95c-1.79,1.77-4.11,3.04-6.95,3.81c-2.84,0.77-6.36,1.16-10.54,1.16h-69.24
			c-4.19,0-7.69-0.39-10.51-1.16c-2.82-0.77-5.11-2.04-6.88-3.81c-1.77-1.77-3.04-4.09-3.81-6.95c-0.77-2.87-1.16-6.39-1.16-10.58
			v-7.48L1247.71-1038.09z"/>
		<path class="st0" d="M1422.08-1003.17h-23.85v-79.33h-46.88v-22.81h117.62v22.81h-46.88V-1003.17z"/>
	</g>
</g>
</svg>
